<!DOCTYPE svg PUBLIC "-//W3C//DTD SVG 1.1//EN" "http://www.w3.org/Graphics/SVG/1.1/DTD/svg11.dtd">
<!-- Uploaded to: SVG Repo, www.svgrepo.com, Transformed by: SVG Repo Mixer Tools -->
<svg fill="#000000" width="800px" height="800px" viewBox="0 0 24 24" xmlns="http://www.w3.org/2000/svg" id="share-alt" class="icon glyph" stroke="#000000" stroke-width="0.00024000000000000003">
<g id="SVGRepo_bgCarrier" stroke-width="0"/>
<g id="SVGRepo_tracerCarrier" stroke-linecap="round" stroke-linejoin="round"/>
<g id="SVGRepo_iconCarrier">
<path d="M20,21H4a2,2,0,0,1-2-2V6A2,2,0,0,1,4,4H8A1,1,0,0,1,8,6H4V19H20V13a1,1,0,0,1,2,0v6A2,2,0,0,1,20,21Z"/>
<path d="M21.62,6.22l-5-4a1,1,0,0,0-1.05-.12A1,1,0,0,0,15,3V4.19a9.79,9.79,0,0,0-7,7.65,1,1,0,0,0,.62,1.09A1,1,0,0,0,9,13a1,1,0,0,0,.83-.45C11,10.78,13.58,10.24,15,10.07V11a1,1,0,0,0,.57.9,1,1,0,0,0,1.05-.12l5-4a1,1,0,0,0,0-1.56Z"/>
</g>
</svg>