<?xml version="1.0" encoding="UTF-8"?>
<svg version="1.1" xmlns="http://www.w3.org/2000/svg" width="256" height="256">
<path d="M0 0 C9.78785961 -0.20885917 19.57518632 -0.36860791 29.36482334 -0.46630955 C33.91109172 -0.51321167 38.45583192 -0.57678278 43.0012207 -0.67895508 C47.39097446 -0.77700738 51.77926222 -0.83061012 56.17002678 -0.85389519 C57.84191912 -0.87047968 59.5137343 -0.9028692 61.18499947 -0.95157051 C74.24003529 -1.31674383 74.24003529 -1.31674383 78.48826599 1.8616333 C80.30617865 4.15602123 81.66784911 6.39883551 83 9 C83.70503662 10.00659668 84.41007324 11.01319336 85.13647461 12.05029297 C85.71921143 12.93861816 86.30194824 13.82694336 86.90234375 14.7421875 C87.89717773 16.24845703 87.89717773 16.24845703 88.91210938 17.78515625 C89.91467773 19.31462891 89.91467773 19.31462891 90.9375 20.875 C95.490449 27.80820071 100.13513882 34.62695339 105.04663086 41.31152344 C108.23624321 45.7014761 111.2714572 50.19394634 114.3125 54.6875 C115.62085886 56.61344084 116.92945441 58.53922091 118.23828125 60.46484375 C118.87459473 61.40183105 119.5109082 62.33881836 120.16650391 63.30419922 C126.70580026 72.91896757 133.30427356 82.49343959 140 92 C146.50977272 85.07166321 152.833724 78.09698636 158.7890625 70.6796875 C161.1093495 67.86746685 163.53071134 65.18202737 166 62.5 C170.11378909 58.0301488 173.97087297 53.40955107 177.78515625 48.68359375 C179.95632827 46.05291443 182.20241357 43.52057576 184.5 41 C187.61458668 37.58260628 190.5918662 34.0947765 193.5 30.5 C197.10394031 26.04512934 200.86983035 21.78719124 204.73046875 17.5546875 C207.93138498 13.95159075 210.94609023 10.20761768 213.95703125 6.4453125 C214.63121094 5.63835938 215.30539063 4.83140625 216 4 C216.58579834 3.29762207 217.17159668 2.59524414 217.77514648 1.87158203 C220.5918483 -0.49787217 222.00280964 -0.46802533 225.640625 -0.390625 C226.71054688 -0.37773438 227.78046875 -0.36484375 228.8828125 -0.3515625 C229.99398437 -0.31804688 231.10515625 -0.28453125 232.25 -0.25 C233.37664062 -0.23195313 234.50328125 -0.21390625 235.6640625 -0.1953125 C238.44356896 -0.14820222 241.2213534 -0.08243361 244 0 C240.32758466 5.0640334 236.50503097 9.78927029 232.1875 14.3125 C227.61857218 19.17596896 223.32503699 24.18180079 219.14453125 29.38671875 C217.00125044 31.99847623 214.7761967 34.50365302 212.5 37 C209.40444804 40.39598682 206.44848793 43.86171531 203.5625 47.4375 C199.70291397 52.20996203 195.62800009 56.73109109 191.47265625 61.24609375 C188.25290481 64.83207284 185.24094824 68.56701492 182.21484375 72.31640625 C179.33519113 75.80550916 176.29306124 79.12996921 173.24609375 82.47265625 C170.15882458 85.94650521 167.26384296 89.56361425 164.35546875 93.1875 C162.66993242 95.20008069 160.98426946 97.10626938 159.17578125 99 C158.70906006 99.49185791 158.24233887 99.98371582 157.76147461 100.49047852 C156.44255261 101.8669974 155.10837397 103.22884996 153.7734375 104.58984375 C151.76126624 106.75543806 151.76126624 106.75543806 152.20214844 108.8605957 C153.15657785 111.41985671 154.43635764 113.39366769 155.9921875 115.640625 C156.60932617 116.5382959 157.22646484 117.4359668 157.86230469 118.36083984 C158.52649414 119.3142627 159.19068359 120.26768555 159.875 121.25 C160.5546582 122.23564941 161.23431641 123.22129883 161.93457031 124.23681641 C163.31104255 126.23215004 164.68993068 128.22581934 166.07128906 130.21777344 C168.19975264 133.28814951 170.3153225 136.36714854 172.42822266 139.44824219 C174.1787264 141.99995543 175.93418547 144.54824222 177.68945312 147.09667969 C179.96155061 150.39646956 182.23057913 153.69836901 184.5 157 C185.41665286 158.33334282 186.33331951 159.66667617 187.25 161 C200.08333333 179.66666667 212.91666667 198.33333333 225.75 217 C226.4311084 217.99060425 226.4311084 217.99060425 227.12597656 219.0012207 C228.03963688 220.33031399 228.95304966 221.65957747 229.86621094 222.98901367 C232.20184097 226.38868072 234.54212196 229.78499169 236.890625 233.17578125 C237.36951172 233.86865234 237.84839844 234.56152344 238.34179688 235.27539062 C239.23728325 236.57080295 240.13425271 237.86519226 241.03320312 239.15820312 C243.66497531 242.96959499 246.18716042 246.83979303 248.66894531 250.75073242 C249.29424133 251.73547043 249.91953735 252.72020844 250.56378174 253.73478699 C251.27470978 254.85606743 251.27470978 254.85606743 252 256 C242.21214039 256.20885917 232.42481368 256.36860791 222.63517666 256.46630955 C218.08890828 256.51321167 213.54416808 256.57678278 208.9987793 256.67895508 C204.60902554 256.77700738 200.22073778 256.83061012 195.82997322 256.85389519 C194.15808088 256.87047968 192.4862657 256.9028692 190.81500053 256.95157051 C177.75996471 257.31674383 177.75996471 257.31674383 173.51173401 254.1383667 C171.69382135 251.84397877 170.33215089 249.60116449 169 247 C168.29496338 245.99340332 167.58992676 244.98680664 166.86352539 243.94970703 C166.28078857 243.06138184 165.69805176 242.17305664 165.09765625 241.2578125 C164.43443359 240.25363281 163.77121094 239.24945313 163.08789062 238.21484375 C162.41951172 237.19519531 161.75113281 236.17554688 161.0625 235.125 C156.509551 228.19179929 151.86486118 221.37304661 146.95336914 214.68847656 C143.76375989 210.29852818 140.72843419 205.80612265 137.6875 201.3125 C136.37528045 199.38001787 135.06277853 197.44772745 133.75 195.515625 C133.11320313 194.57783203 132.47640625 193.64003906 131.8203125 192.67382812 C129.29152129 188.95932687 126.7404414 185.26042219 124.1875 181.5625 C119.03994155 174.09806096 114.00693853 166.55928247 109 159 C105.0554025 162.14326295 101.81631511 165.19840804 98.6875 169.1875 C95.72318298 172.89662029 92.70316027 176.49497123 89.5 180 C86.40444804 183.39598682 83.44848793 186.86171531 80.5625 190.4375 C76.70291397 195.20996203 72.62800009 199.73109109 68.47265625 204.24609375 C65.25290481 207.83207284 62.24094824 211.56701492 59.21484375 215.31640625 C56.33519113 218.80550916 53.29306124 222.12996921 50.24609375 225.47265625 C47.93812402 228.06962393 45.74444137 230.73404013 43.5625 233.4375 C39.66511267 238.25633617 35.56934818 242.84748505 31.359375 247.39453125 C28.8732483 249.97936533 28.8732483 249.97936533 26.97265625 253.30078125 C25.14622885 255.51289836 24.22552715 255.95949674 21.35595703 256.47485352 C18.11287136 256.59128116 14.92914365 256.52277803 11.6875 256.375 C10.56537109 256.34792969 9.44324219 256.32085937 8.28710938 256.29296875 C5.52277541 256.22239001 2.76237585 256.12384488 0 256 C3.54379702 251.13429214 7.18041134 246.56445317 11.3125 242.1875 C15.69230806 237.49730009 19.79435852 232.64864369 23.8203125 227.6484375 C25.97757399 225.02724881 28.21311 222.50845719 30.5 220 C33.59555196 216.60401318 36.55151207 213.13828469 39.4375 209.5625 C43.29708603 204.79003797 47.37199991 200.26890891 51.52734375 195.75390625 C54.74709519 192.16792716 57.75905176 188.43298508 60.78515625 184.68359375 C63.66480887 181.19449084 66.70693876 177.87003079 69.75390625 174.52734375 C72.06187598 171.93037607 74.25555863 169.26595987 76.4375 166.5625 C80.29020913 161.79376212 84.34995241 157.2719413 88.54296875 152.80078125 C91.57247871 149.34742888 94.28954882 145.70596176 97 142 C89.46202577 130.97392891 81.91417565 119.95480457 74.34277344 108.95166016 C72.06091481 105.63508236 69.78054245 102.3174829 67.5 99 C66.58334024 97.66666192 65.66667358 96.33332858 64.75 95 C51.91666667 76.33333333 39.08333333 57.66666667 26.25 39 C25.5688916 38.00939575 25.5688916 38.00939575 24.87402344 36.9987793 C23.96036312 35.66968601 23.04695034 34.34042253 22.13378906 33.01098633 C19.79815903 29.61131928 17.45787804 26.21500831 15.109375 22.82421875 C14.63048828 22.13134766 14.15160156 21.43847656 13.65820312 20.72460938 C12.76271675 19.42919705 11.86574729 18.13480774 10.96679688 16.84179688 C8.33502469 13.03040501 5.81283958 9.16020697 3.33105469 5.24926758 C2.70575867 4.26452957 2.08046265 3.27979156 1.43621826 2.26521301 C0.96226624 1.51769272 0.48831421 0.77017242 0 0 Z M32 17 C35.99683998 23.36407022 40.0565128 29.64395028 44.4375 35.75 C45.48123521 37.21690286 46.52415905 38.68438327 47.56640625 40.15234375 C48.11828613 40.9294873 48.67016602 41.70663086 49.23876953 42.50732422 C52.47719179 47.09067483 55.67422644 51.7028176 58.875 56.3125 C65.65597367 66.0728826 72.46169918 75.81556788 79.28222656 85.54833984 C82.1896209 89.69786428 85.09468001 93.84902306 88 98 C89.16665575 99.66667431 90.33332241 101.33334098 91.5 103 C93.83333333 106.33333333 96.16666667 109.66666667 98.5 113 C99.07733887 113.8247583 99.65467773 114.6495166 100.24951172 115.49926758 C101.41784967 117.16834507 102.58614384 118.83745322 103.75439453 120.5065918 C106.64513489 124.63662338 109.53659854 128.76614446 112.4296875 132.89453125 C119.31728062 142.72500507 126.18294378 152.57042296 133.03417969 162.42626953 C139.09800618 171.14686679 145.18658311 179.84996444 151.28222656 188.54833984 C154.76777425 193.52302288 158.25047857 198.49969774 161.73291016 203.4765625 C164.74594852 207.7821138 167.76155938 212.08582982 170.78125 216.38671875 C171.71517578 217.71799805 171.71517578 217.71799805 172.66796875 219.07617188 C173.84680665 220.75645575 175.02643091 222.43618836 176.20703125 224.11523438 C176.74714844 224.88544922 177.28726563 225.65566406 177.84375 226.44921875 C178.38499512 227.19421631 178.92624023 227.93921387 179.48388672 228.70678711 C181 231 181 231 182.14501953 233.56079102 C183.51492105 236.38347559 184.52977904 238.04204069 187 240 C192.6615604 241.12214951 198.13754436 240.85009629 203.875 240.5625 C205.43738511 240.51731909 206.99989521 240.47626071 208.5625 240.43945312 C212.37809941 240.34061746 216.18767461 240.1855725 220 240 C216.00316002 233.63592978 211.9434872 227.35604972 207.5625 221.25 C206.51876479 219.78309714 205.47584095 218.31561673 204.43359375 216.84765625 C203.88171387 216.0705127 203.32983398 215.29336914 202.76123047 214.49267578 C199.52280821 209.90932517 196.32577356 205.2971824 193.125 200.6875 C186.34402633 190.9271174 179.53830082 181.18443212 172.71777344 171.45166016 C169.8103791 167.30213572 166.90531999 163.15097694 164 159 C162.83334425 157.33332569 161.66667759 155.66665902 160.5 154 C153.5 144 146.5 134 139.5 124 C138.92266113 123.1752417 138.34532227 122.3504834 137.75048828 121.50073242 C136.58215033 119.83165493 135.41385616 118.16254678 134.24560547 116.4934082 C131.35486511 112.36337662 128.46340146 108.23385554 125.5703125 104.10546875 C118.68271938 94.27499493 111.81705622 84.42957704 104.96582031 74.57373047 C100.61235315 68.31285973 96.24924664 62.05886996 91.875 55.8125 C91.31103516 55.00707764 90.74707031 54.20165527 90.16601562 53.37182617 C87.1886942 49.12112859 84.20860665 44.87238562 81.2265625 40.625 C80.60281738 39.73578857 79.97907227 38.84657715 79.33642578 37.93041992 C78.1560023 36.2476652 76.97475564 34.56548747 75.79248047 32.8840332 C75.25252441 32.11406006 74.71256836 31.34408691 74.15625 30.55078125 C73.61500488 29.80578369 73.07375977 29.06078613 72.51611328 28.29321289 C71 26 71 26 69.85498047 23.43920898 C68.48507895 20.61652441 67.47022096 18.95795931 65 17 C59.3384396 15.87785049 53.86245564 16.14990371 48.125 16.4375 C46.56261489 16.48268091 45.00010479 16.52373929 43.4375 16.56054688 C39.62190059 16.65938254 35.81232539 16.8144275 32 17 Z " fill="#000000" transform="translate(2,0)"/>
</svg>
